<svg width="448" height="172" viewBox="0 0 448 172" fill="none" xmlns="http://www.w3.org/2000/svg">
<path d="M5.61135 65.6951C5 68.832 5 72.6949 5 79.1656V94.7307C5 102.759 5 106.773 6.16756 110.366C7.20062 113.546 8.89041 116.472 11.1274 118.957C13.6555 121.765 17.1318 123.772 24.0842 127.786L37.564 135.568C43.7169 139.121 47.1472 141.101 50.4165 142.054V94.0288C50.4165 91.6281 49.1052 89.4192 46.9976 88.2696L5.61135 65.6951Z" fill="#C9191E"/>
<path d="M118.313 72.7489V97.7898C118.313 101.252 119.818 104.544 122.436 106.809L140.459 122.406C141.513 123.298 142.608 124.028 143.744 124.596C144.92 125.123 146.056 125.387 147.151 125.387C149.503 125.387 151.389 124.616 152.809 123.075C154.269 121.493 154.999 119.445 154.999 116.93V53.6577C154.999 51.1431 154.269 49.1151 152.809 47.5738C151.389 45.992 149.503 45.2011 147.151 45.2011C146.056 45.2011 144.92 45.4647 143.744 45.992C142.608 46.5193 141.513 47.2494 140.459 48.1822L122.45 63.7172C119.823 65.983 118.313 69.28 118.313 72.7489Z" fill="#000091"/>
<path d="M11.6345 56.7522C11.1333 56.4788 10.6078 56.2937 10.0757 56.1915C10.4114 55.7628 10.7622 55.3452 11.1276 54.9394C13.6558 52.1315 17.132 50.1245 24.0845 46.1105L37.5643 38.3279C44.5167 34.3139 47.993 32.3069 51.6887 31.5213C54.9587 30.8262 58.3383 30.8262 61.6083 31.5213C65.304 32.3069 68.7803 34.3139 75.7327 38.3279L89.0535 46.0187C89.1066 46.0492 89.1597 46.0798 89.2129 46.1105C96.1653 50.1245 99.6416 52.1316 102.17 54.9394C104.407 57.4238 106.096 60.3506 107.13 63.5301C108.297 67.1235 108.297 71.1375 108.297 79.1656V94.7307C108.297 102.759 108.297 106.773 107.13 110.366C106.096 113.546 104.407 116.473 102.17 118.957C99.6416 121.765 96.1655 123.772 89.2133 127.785C89.1537 127.82 89.0936 127.855 89.0341 127.889L75.7327 135.568C68.7803 139.582 65.304 141.589 61.6083 142.375C61.4564 142.407 61.3043 142.438 61.1519 142.467L61.1519 94.0288C61.1519 87.6997 57.6948 81.8761 52.1386 78.8455L11.6345 56.7522Z" fill="#000091"/>
<path d="M193.72 45.7333H211.035L234.771 108.456L258.507 45.7333H275.821L245.435 126H224.107L193.72 45.7333ZM289.019 58.1173C283.859 58.1173 279.501 53.76 279.501 48.6C279.501 43.44 283.859 39.0827 289.019 39.0827C294.179 39.0827 298.421 43.44 298.421 48.6C298.421 53.76 294.179 58.1173 289.019 58.1173ZM281.68 126V68.208H296.243V126H281.68ZM303.29 117.629L312.922 108.915C316.477 113.387 320.72 116.597 326.224 116.597C330.925 116.597 333.333 113.845 333.333 110.405C333.333 100.315 305.698 104.099 305.698 83.8027C305.698 73.5973 314.298 65.9147 326.338 65.9147C335.168 65.9147 343.194 70.1573 347.322 75.776L337.69 84.2613C334.709 80.592 330.925 77.6107 326.453 77.6107C321.866 77.6107 319.688 80.1333 319.688 83.1147C319.688 92.976 347.322 89.536 347.322 109.488C347.093 121.643 337.346 128.293 326.453 128.293C316.133 128.293 308.794 124.165 303.29 117.629ZM363.494 58.1173C358.334 58.1173 353.977 53.76 353.977 48.6C353.977 43.44 358.334 39.0827 363.494 39.0827C368.654 39.0827 372.897 43.44 372.897 48.6C372.897 53.76 368.654 58.1173 363.494 58.1173ZM356.155 126V68.208H370.718V126H356.155ZM411.115 65.9147C429.92 65.9147 442.763 79.7893 442.763 97.104C442.763 114.419 429.92 128.293 411.115 128.293C392.309 128.293 379.467 114.419 379.467 97.104C379.467 79.7893 392.309 65.9147 411.115 65.9147ZM411.344 114.533C420.632 114.533 427.627 107.08 427.627 97.104C427.627 87.0133 420.632 79.6747 411.344 79.6747C401.712 79.6747 394.603 87.0133 394.603 97.104C394.603 107.195 401.712 114.533 411.344 114.533Z" fill="#000091"/>
</svg>
