<svg width="160" height="160" viewBox="0 0 160 160" fill="none" xmlns="http://www.w3.org/2000/svg">
<path d="M5.61135 59.6951C5 62.832 5 66.6949 5 73.1656V88.7307C5 96.7588 5 100.773 6.16756 104.366C7.20062 107.546 8.89041 110.472 11.1274 112.957C13.6555 115.765 17.1318 117.772 24.0842 121.786L37.564 129.568C43.7169 133.121 47.1472 135.101 50.4165 136.054V88.0288C50.4165 85.6281 49.1052 83.4192 46.9976 82.2696L5.61135 59.6951Z" fill="#C9191E"/>
<path d="M118.313 66.7489V91.7898C118.313 95.2521 119.818 98.5435 122.436 100.809L140.459 116.406C141.513 117.298 142.608 118.028 143.744 118.596C144.92 119.123 146.056 119.387 147.151 119.387C149.503 119.387 151.389 118.616 152.809 117.075C154.269 115.493 154.999 113.445 154.999 110.93V47.6577C154.999 45.1431 154.269 43.1151 152.809 41.5738C151.389 39.992 149.503 39.2011 147.151 39.2011C146.056 39.2011 144.92 39.4647 143.744 39.992C142.608 40.5193 141.513 41.2494 140.459 42.1822L122.45 57.7172C119.823 59.983 118.313 63.28 118.313 66.7489Z" fill="#000091"/>
<path d="M11.6345 50.7522C11.1333 50.4788 10.6078 50.2937 10.0757 50.1915C10.4114 49.7628 10.7622 49.3452 11.1276 48.9394C13.6558 46.1315 17.132 44.1245 24.0845 40.1105L37.5643 32.3279C44.5167 28.3139 47.993 26.3069 51.6887 25.5213C54.9587 24.8262 58.3383 24.8262 61.6083 25.5213C65.304 26.3069 68.7803 28.3139 75.7327 32.3279L89.0535 40.0187C89.1066 40.0492 89.1597 40.0798 89.2129 40.1105C96.1653 44.1245 99.6416 46.1316 102.17 48.9394C104.407 51.4238 106.096 54.3506 107.13 57.5301C108.297 61.1235 108.297 65.1375 108.297 73.1656V88.7307C108.297 96.7588 108.297 100.773 107.13 104.366C106.096 107.546 104.407 110.473 102.17 112.957C99.6416 115.765 96.1655 117.772 89.2133 121.785C89.1537 121.82 89.0936 121.855 89.0341 121.889L75.7327 129.568C68.7803 133.582 65.304 135.589 61.6083 136.375C61.4564 136.407 61.3043 136.438 61.1519 136.467L61.1519 88.0288C61.1519 81.6997 57.6948 75.8761 52.1386 72.8455L11.6345 50.7522Z" fill="#000091"/>
</svg>
